<svg xmlns="http://www.w3.org/2000/svg" xmlns:xlink="http://www.w3.org/1999/xlink" version="1.1" width="597.6701" height="784.7617" viewBox="0 0 597.6701 784.7617">
<defs>
<clipPath id="clip_0">
<path transform="matrix(1,0,0,-1,0,784.7617)" d="M38.90836 36H561.1701V558.2617H38.90836Z"/>
</clipPath>
<clipPath id="clip_1">
<path transform="matrix(1,0,0,-1,0,784.7617)" d="M184.5168 265.0312H415.5617V329.2304H184.5168Z"/>
</clipPath>
<path id="font_2_15" d="M.060546876 .24023438 .5439453 .05517578V.13232422L.06542969 .31152345V.26220704L.5439453 .44140626V.51660159L.060546876 .33154298V.24023438Z"/>
<path id="font_2_3" d="M.3076172-.009765625C.35091148-.009765625 .38875328 .0010579428 .42114259 .022705079 .4535319 .044352216 .47867839 .07495117 .49658204 .11450195 .51448568 .15405274 .5234375 .20052083 .5234375 .25390626V.25439454C.5234375 .30777995 .5144043 .35416667 .4963379 .3935547 .47827149 .43294273 .4532064 .4634603 .42114259 .48510743 .38907878 .5067546 .35172526 .5175781 .30908204 .5175781 .285319 .5175781 .26302085 .51375326 .2421875 .5061035 .22135417 .49845378 .20288086 .48754884 .18676758 .47338868 .1706543 .45922853 .15722656 .4423828 .14648438 .42285157H.14453125V.7050781H.059570314V0H.14453125V.0859375H.14648438C.15722656 .06608073 .17049153 .049072267 .1862793 .03491211 .20206706 .020751954 .22021485 .009765625 .24072266 .001953125 .26123048-.005859375 .28352867-.009765625 .3076172-.009765625M.29101563 .06542969C.26236979 .06542969 .23697917 .07324219 .21484375 .08886719 .19270833 .10449219 .17537435 .12646485 .1628418 .15478516 .15030925 .18310547 .14404297 .21614583 .14404297 .25390626V.25439454C.14404297 .29215495 .15039063 .32511393 .16308594 .35327149 .17578125 .38142906 .19311524 .4033203 .21508789 .4189453 .23706055 .4345703 .26236979 .4423828 .29101563 .4423828 .32096354 .4423828 .34684245 .43473307 .36865235 .4194336 .39046226 .40413413 .40722657 .38248698 .4189453 .3544922 .43066407 .3264974 .43652345 .2931315 .43652345 .25439454V.25390626C.43652345 .21516927 .43066407 .18164063 .4189453 .15332031 .40722657 .125 .39046226 .103271488 .36865235 .088134769 .34684245 .07299805 .32096354 .06542969 .29101563 .06542969Z"/>
<path id="font_2_9" d="M.26586915-.009765625C.312795-.009765625 .35385133 .0009765625 .3890381 .022460938 .42423503 .043945314 .45169068 .07438151 .47140504 .11376953 .49111939 .15315755 .50097659 .1998698 .50097659 .25390626V.2548828C.50097659 .30891929 .49111939 .35555015 .47140504 .3947754 .45169068 .43400065 .42415367 .46427409 .38879396 .4855957 .35344444 .5069173 .31230674 .5175781 .26538087 .5175781 .21878052 .5175781 .17780049 .5069173 .1424408 .4855957 .10709127 .46427409 .079559329 .43400065 .05984497 .3947754 .040130617 .35555015 .030273438 .30891929 .030273438 .2548828V.25390626C.030273438 .20019531 .040130617 .15356446 .05984497 .11401367 .079559329 .07446289 .10709127 .043945314 .1424408 .022460938 .17780049 .0009765625 .21894329-.009765625 .26586915-.009765625M.26635743 .06542969C.23635865 .06542969 .21018982 .07283529 .18785095 .087646488 .16552226 .10245768 .14816284 .123942058 .1357727 .15209961 .12338257 .18025716 .1171875 .2141927 .1171875 .25390626V.2548828C.1171875 .29459635 .12338257 .32836915 .1357727 .35620118 .14816284 .3840332 .16552226 .40535484 .18785095 .42016603 .21018982 .4349772 .23603313 .4423828 .26538087 .4423828 .29537965 .4423828 .32154338 .4350586 .34387208 .42041017 .36621095 .40576173 .38349406 .3844401 .39572145 .3564453 .40794883 .32845054 .4140625 .29459635 .4140625 .2548828V.25390626C.4140625 .2141927 .40794883 .18025716 .39572145 .15209961 .38349406 .123942058 .3663737 .10245768 .34436036 .087646488 .32235719 .07283529 .2963562 .06542969 .26635743 .06542969Z"/>
<path id="font_2_2" d="M.2033844-.009765625C.22620137-.009765625 .24779766-.0059254968 .26817323 .0017547608 .2885488 .00944519 .30688478 .020243327 .32318116 .03414917 .3394877 .04805501 .3525289 .064331058 .3623047 .082977298H.3642578V.000061035159H.44921876V.35108949C.44921876 .38494364 .4412333 .4143168 .42526246 .43920899 .4092916 .46411134 .38671876 .48339845 .35754396 .4970703 .3283793 .5107422 .29375205 .5175781 .2536621 .5175781 .2138977 .5175781 .17950948 .5108287 .15049744 .4973297 .12149557 .48383079 .09876505 .46569316 .08230591 .44291688 .06584676 .4201406 .056315107 .39476524 .053710939 .36679078L.053222658 .36143495H.13528443L.13626099 .36582948C.14115398 .38858543 .15363057 .4070333 .1736908 .4211731 .19375102 .4353129 .22008769 .4423828 .2527008 .4423828 .28825379 .4423828 .31573487 .43352256 .33514405 .415802 .35455323 .39808146 .3642578 .3737793 .3642578 .3428955V.19319153C.3642578 .16880799 .3579763 .14686077 .3454132 .12734986 .33286033 .10784912 .3159027 .09248861 .2945404 .08126831 .2731781 .07005819 .24912007 .064453128 .22236634 .064453128 .19170635 .064453128 .16716004 .07160441 .14872742 .08590698 .13030498 .10020956 .12109375 .11955261 .12109375 .14393616V.14491272C.12109375 .16864522 .13046773 .18766277 .1492157 .20196533 .16796367 .2162679 .19429524 .22439575 .22821045 .22634888L.40673829 .2370758V.30291749L.21850586 .29216004C.17971802 .28988139 .14655049 .2825521 .119003299 .27017213 .09146627 .25780235 .07044474 .24103292 .05593872 .21986389 .041432699 .19869487 .034179689 .1736145 .034179689 .1446228V.14364624C.034179689 .11302694 .04126994 .08615112 .05545044 .0630188 .06963094 .03989665 .08943685 .021982829 .114868167 .009277344 .14029949-.0034179688 .16980489-.009765625 .2033844-.009765625Z"/>
<path id="font_2_11" d="M.0546875 0H.13964844V.31347657C.13964844 .33919273 .14412435 .36124674 .15307617 .37963868 .162028 .3980306 .17472331 .41210938 .19116211 .421875 .2076009 .43164063 .22672527 .43652345 .24853516 .43652345 .2589518 .43652345 .26831056 .43603517 .27661134 .4350586 .2849121 .43408204 .2906901 .43294273 .2939453 .43164063V.51416018C.2906901 .5148112 .28605143 .51554366 .2800293 .5163574 .27400718 .5171712 .2672526 .5175781 .25976563 .5175781 .2311198 .5175781 .2063802 .50895187 .18554688 .49169923 .16471355 .47444663 .15006511 .45117188 .14160156 .421875H.13964844V.5078125H.0546875V0Z"/>
<path id="font_2_4" d="M.24609375-.009765625C.2705078-.009765625 .29288737-.005859375 .31323243 .001953125 .33357749 .009765625 .35172526 .020751954 .36767579 .03491211 .3836263 .049072267 .3968099 .06608073 .40722657 .0859375H.4091797V0H.49414063V.7050781H.4091797V.42285157H.40722657C.3968099 .4423828 .38346354 .45922853 .3671875 .47338868 .35091148 .48754884 .33243815 .49845378 .31176759 .5061035 .29109703 .51375326 .26871745 .5175781 .2446289 .5175781 .2023112 .5175781 .16503906 .5067546 .1328125 .48510743 .10058594 .4634603 .07543945 .43294273 .057373048 .3935547 .03930664 .35416667 .030273438 .30777995 .030273438 .25439454V.25390626C.030273438 .20052083 .03922526 .15405274 .057128908 .11450195 .075032558 .07495117 .10017904 .044352216 .13256836 .022705079 .16495769 .0010579428 .20279949-.009765625 .24609375-.009765625M.2626953 .06542969C.23274739 .06542969 .20686849 .07299805 .1850586 .088134769 .1632487 .103271488 .14648438 .125 .13476563 .15332031 .123046878 .18164063 .1171875 .21516927 .1171875 .25390626V.25439454C.1171875 .2931315 .123046878 .3264974 .13476563 .3544922 .14648438 .38248698 .1632487 .40413413 .1850586 .4194336 .20686849 .43473307 .23274739 .4423828 .2626953 .4423828 .29134117 .4423828 .3166504 .4345703 .33862306 .4189453 .3605957 .4033203 .3779297 .38142906 .390625 .35327149 .4033203 .32511393 .40966798 .29215495 .40966798 .25439454V.25390626C.40966798 .21614583 .4034017 .18310547 .39086915 .15478516 .37833659 .12646485 .3610026 .10449219 .3388672 .08886719 .31673179 .07324219 .29134117 .06542969 .2626953 .06542969Z"/>
<path id="font_2_14" d="M.057617189 .24609375H.3701172V.3251953H.057617189V.24609375Z"/>
<path id="font_2_6" d="M.27001954-.18066406C.31591798-.18066406 .3556315-.17260742 .38916017-.15649414 .4226888-.14038086 .44856773-.117757167 .46679688-.08862305 .48502604-.059488935 .49414063-.025227866 .49414063 .014160156V.5078125H.4091797V.421875H.40722657C.3968099 .44075523 .38370768 .45735679 .36791993 .4716797 .35213218 .4860026 .33414714 .49723307 .31396485 .5053711 .29378257 .5135091 .27164714 .5175781 .2475586 .5175781 .20458985 .5175781 .16682942 .50683596 .13427735 .48535157 .10172526 .4638672 .07625326 .43367515 .057861329 .3947754 .039469404 .35587565 .030273438 .3100586 .030273438 .25732423V.25683595C.030273438 .20410156 .03930664 .15812175 .057373048 .118896488 .07543945 .07967123 .10066732 .049235029 .13305664 .02758789 .16544597 .0059407555 .20296224-.0048828127 .24560547-.0048828127 .27001954-.0048828127 .29256187-.0010579428 .31323243 .006591797 .33390299 .014241536 .35221354 .024902344 .36816407 .03857422 .3841146 .052246095 .3971354 .06852213 .40722657 .087402347H.4091797V.022460938C.4091797-.016927084 .39697267-.048095704 .3725586-.07104492 .34814454-.09399414 .3136393-.10546875 .26904298-.10546875 .23453777-.10546875 .20564778-.10017904 .18237305-.08959961 .15909831-.07902018 .14339192-.06461588 .1352539-.04638672L.13330078-.041992189H.047851564L.048828126-.04638672C.05436198-.07145182 .06665039-.0941569 .08569336-.11450195 .10473633-.134847 .12980144-.15096028 .16088867-.1628418 .1919759-.17472331 .22835286-.18066406 .27001954-.18066406M.26416017 .0703125C.23421224 .0703125 .20817058 .07788086 .18603516 .09301758 .16389974 .1081543 .14689128 .12963867 .13500977 .1574707 .12312826 .18530274 .1171875 .21842449 .1171875 .25683595V.25732423C.1171875 .29508464 .12312826 .32779948 .13500977 .35546876 .14689128 .38313804 .16389974 .40454103 .18603516 .41967774 .20817058 .43481446 .23421224 .4423828 .26416017 .4423828 .292806 .4423828 .31803385 .43473307 .33984376 .4194336 .36165367 .40413413 .3786621 .38264976 .39086915 .35498048 .40307618 .3273112 .4091797 .29475913 .4091797 .25732423V.25683595C.4091797 .21940105 .40307618 .1866862 .39086915 .1586914 .3786621 .13069661 .36173503 .1089681 .3400879 .09350586 .31844078 .07804362 .2931315 .0703125 .26416017 .0703125Z"/>
<path id="font_2_7" d="M.060546876 0H.14550781V.5078125H.060546876V0M.103027347 .59375C.118001308 .59375 .13061524 .5989583 .14086914 .609375 .15112305 .6197917 .15625 .6323242 .15625 .64697268 .15625 .6619466 .15112305 .67456057 .14086914 .68481448 .13061524 .69506838 .118001308 .7001953 .103027347 .7001953 .088378909 .7001953 .07584635 .69506838 .06542969 .68481448 .05501302 .67456057 .049804689 .6619466 .049804689 .64697268 .049804689 .6323242 .05501302 .6197917 .06542969 .609375 .07584635 .5989583 .088378909 .59375 .103027347 .59375Z"/>
<path id="font_2_16" d="M.5439453 .33154298 .060546876 .51660159V.43945313L.5390625 .2602539V.3095703L.060546876 .1303711V.05517578L.5439453 .24023438V.33154298Z"/>
<clipPath id="clip_3">
<path transform="matrix(1,0,0,-1,0,784.7617)" d="M185.1935 690.1621H414.8849V754.3613H185.1935Z"/>
</clipPath>
<path id="font_2_1" d="M.068359378 .00048828127H.15039063V.5449219H.19042969L.095214847 .6855469 .37841798 .00048828127H.45263673L.73583987 .6855469 .640625 .5449219H.68066409V.00048828127H.7626953V.7050781H.6611328L.4169922 .111328128H.4140625L.16992188 .7050781H.068359378V.00048828127Z"/>
<path id="font_2_8" d="M.0546875 0H.13964844V.29882813C.13964844 .32779948 .1451009 .35302735 .15600586 .37451173 .16691081 .3959961 .18229167 .41267906 .20214844 .42456056 .2220052 .43644206 .24527996 .4423828 .27197267 .4423828 .31103517 .4423828 .34025065 .43139649 .35961915 .40942384 .37898765 .38745118 .38867188 .35579429 .38867188 .31445313V0H.4736328V.32958985C.4736328 .38753257 .45825196 .4333496 .42749024 .46704103 .39672853 .5007324 .35351563 .5175781 .29785157 .5175781 .2594401 .5175781 .22721355 .509847 .20117188 .49438478 .1751302 .47892253 .15527344 .4593099 .14160156 .43554688H.13964844V.5078125H.0546875V0Z"/>
<path id="font_2_5" d="M.26441957-.009765625C.29211936-.009765625 .31786094-.005935669 .3416443 .0017242432 .36543785 .009384155 .3866221 .020141602 .40519715 .033996583 .4237722 .047851564 .43900553 .0639089 .45089723 .08216858 .46279908 .10042826 .47086589 .11999003 .47509767 .14085388L.47607423 .1457367H.39256288L.39109803 .1413269C.38620506 .12663777 .37805177 .11358134 .36663819 .10215759 .3552246 .09073385 .34103904 .08175659 .32408143 .07522583 .3071238 .06869507 .28788758 .06542969 .26637269 .06542969 .23572286 .06542969 .20914714 .07218424 .18664551 .08569336 .16414388 .09920248 .14677938 .118652347 .134552 .14404297 .12232462 .1694336 .11621094 .20003255 .11621094 .23583985V.2685547C.11621094 .3063151 .122406009 .33813478 .13479615 .36401368 .14718628 .38989259 .16414388 .40942384 .18566895 .42260743 .20719402 .43579103 .23148601 .4423828 .25854493 .4423828 .285614 .4423828 .30958048 .4361318 .33044435 .42362977 .35131837 .41112773 .3677063 .39204917 .37960816 .36639405 .39151 .34073893 .39746095 .30826316 .39746095 .26896668V.23632813L.4404297 .29785157H.072753909V.23144531H.48242188V.26264955C.48242188 .31333924 .47345988 .35785423 .4555359 .39619447 .4376119 .4345449 .41194663 .46436057 .37854005 .48564149 .34514366 .50693258 .305308 .5175781 .2590332 .5175781 .21275838 .5175781 .17251079 .506429 .1382904 .48413087 .1040802 .46183268 .07752482 .43074546 .058624269 .39086915 .039723714 .35099284 .030273438 .30485026 .030273438 .2524414V.25195313C.030273438 .19889324 .039642335 .15275066 .058380128 .11352539 .07711792 .07430013 .104003909 .043945314 .13903809 .022460938 .17407227 .0009765625 .21586609-.009765625 .26441957-.009765625Z"/>
<path id="font_2_12" d="M.23510742-.0107421879C.2729187-.0107421879 .30673219-.004308065 .33654786 .008560181 .3663737 .021438599 .3898417 .039281209 .4069519 .062088014 .4240621 .08489481 .4326172 .11112976 .4326172 .14079285V.14128113C.4326172 .16539002 .4280497 .18616231 .4189148 .20359802 .40979005 .22103374 .3950399 .23594158 .3746643 .24832154 .35428874 .2607015 .3269806 .27096559 .29273988 .27911378L.21203614 .29867555C.19345093 .30323283 .17828878 .30893455 .16654969 .31578065 .15482076 .32262675 .14626567 .33068849 .1408844 .33996583 .13550313 .34925334 .1328125 .35960389 .1328125 .37101747V.37150575C.1328125 .38648988 .1368103 .39960227 .14480591 .4108429 .15280152 .42209373 .16430156 .43081156 .17930603 .43699647 .1943105 .44319154 .21209209 .44628907 .23265076 .44628907 .2642975 .44628907 .28933717 .4388021 .30776979 .42382813 .3262024 .40885417 .3370514 .3889974 .34031678 .3642578L.34080506 .36083985H.421875L.42138673 .36720277C.4194336 .39561463 .41055299 .421168 .39474488 .44386292 .37893678 .46655784 .35725913 .48451744 .3297119 .4977417 .3021749 .510966 .26982627 .5175781 .23266602 .5175781 .19615682 .5175781 .1638031 .5112203 .13560486 .49850465 .107416789 .48579917 .0854187 .46820579 .069610599 .4457245 .05380249 .4232432 .045898439 .39733378 .045898439 .36799623V.36750794C.045898439 .34307353 .05111186 .32173158 .061538698 .30348207 .07197571 .28523255 .08770752 .26983134 .10873413 .25727845 .12977092 .24473572 .15626526 .2345581 .18821717 .2267456L.2689209 .20718384C.29793296 .20002239 .317983 .19089763 .32907105 .17980957 .3401591 .16873169 .34570313 .154068 .34570313 .13581848V.1353302C.34570313 .120020549 .34129844 .10674032 .332489 .0954895 .3236796 .08424886 .31111656 .07561239 .2947998 .06958008 .27849327 .063557948 .25876365 .060546876 .23561096 .060546876 .20102437 .060546876 .17410787 .06762695 .15486145 .08178711 .13561504 .095947269 .12338257 .115722659 .11816406 .14111328L.1171875 .1459961H.032226564L.032714845 .1415863C.036295576 .11122131 .04647827 .084609989 .06326294 .06175232 .08004761 .038894655 .10294088 .021097819 .13194275 .008361816 .16095479-.004374186 .19534302-.0107421879 .23510742-.0107421879Z"/>
<path id="font_2_13" d="M.15576172 0H.2421875L.3564453 .3930664H.35839845L.47314454 0H.5595703L.7011719 .5078125H.6171875L.515625 .09472656H.5136719L.3984375 .5078125H.31640626L.20166016 .09472656H.19970703L.09814453 .5078125H.013671875L.15576172 0Z"/>
<path id="font_2_10" d="M.0546875-.17089844H.13964844V.08496094H.14160156C.15234375 .06542969 .16577149 .048583986 .18188477 .034423829 .19799805 .020263672 .21647136 .009358724 .23730469 .0017089844 .25813804-.0059407555 .2804362-.009765625 .30419923-.009765625 .34684245-.009765625 .38419596 .0010579428 .41625978 .022705079 .44832359 .044352216 .47338868 .07486979 .49145509 .11425781 .5095215 .15364583 .5185547 .20003255 .5185547 .25341798V.25390626C.5185547 .30729167 .50960287 .35375978 .49169923 .39331056 .47379557 .43286134 .44864909 .4634603 .41625978 .48510743 .38387046 .5067546 .34602867 .5175781 .30273438 .5175781 .27864585 .5175781 .25634767 .5136719 .23583985 .5058594 .21533203 .49804688 .19718425 .48706056 .18139649 .4729004 .16560872 .45874024 .15234375 .44173179 .14160156 .421875H.13964844V.5078125H.0546875V-.17089844M.2861328 .06542969C.25748698 .06542969 .23217774 .07324219 .21020508 .08886719 .18823242 .10449219 .17089844 .12638347 .15820313 .15454102 .14550781 .18269857 .13916016 .21565755 .13916016 .25341798V.25390626C.13916016 .2919922 .14542644 .32511393 .15795899 .35327149 .17049153 .38142906 .18782552 .4033203 .20996094 .4189453 .23209636 .4345703 .25748698 .4423828 .2861328 .4423828 .31608073 .4423828 .34195964 .43481446 .36376954 .41967774 .38557945 .40454103 .40234376 .3828939 .4140625 .35473634 .42578126 .32657878 .43164063 .29296876 .43164063 .25390626V.25341798C.43164063 .21500652 .42578126 .181722 .4140625 .15356446 .40234376 .1254069 .38557945 .10367838 .36376954 .088378909 .34195964 .07307943 .31608073 .06542969 .2861328 .06542969Z"/>
<clipPath id="clip_4">
<path transform="matrix(1,0,0,-1,0,784.7617)" d="M38.40836 476.6211H561.6701V557.2617H38.40836Z"/>
</clipPath>
<clipPath id="clip_5">
<path transform="matrix(1,0,0,-1,0,784.7617)" d="M45.23648 483.8672H107.408359V550.0156H45.23648Z"/>
</clipPath>
<clipPath id="clip_6">
<path transform="matrix(1,0,0,-1,0,784.7617)" d="M491.2365 483.8672H553.4084V550.0156H491.2365Z"/>
</clipPath>
<clipPath id="clip_7">
<path transform="matrix(1,0,0,-1,0,784.7617)" d="M268.9533 483.8672H331.12519V550.0156H268.9533Z"/>
</clipPath>
<clipPath id="clip_8">
<path transform="matrix(1,0,0,-1,0,784.7617)" d="M263.0321 501.1416H337.04634V532.7412H263.0321Z"/>
</clipPath>
<path id="font_9_16" d="M.068359378 .24240113 .5600586 .026397706V.10948181L.07324219 .3162079V.2546234L.5600586 .46087647V.5415039L.068359378 .32548524V.24240113Z"/>
<path id="font_9_12" d="M.078125 0H.16308594V.3259735C.16308594 .35172019 .16894531 .37420146 .18066406 .39341737 .19238281 .41264344 .20857747 .42755128 .22924805 .43814088 .24991863 .44873048 .27360026 .45402528 .30029298 .45402528 .30973307 .45402528 .31860353 .45361839 .3269043 .45280458 .33520509 .45199076 .34358726 .45077006 .35205079 .44914247V.5317383C.347819 .53238937 .34179688 .53312179 .33398438 .53393557 .32617188 .5347493 .31819663 .53515627 .3100586 .53515627 .27490235 .53515627 .24536133 .52749636 .22143555 .5121765 .19750977 .49686686 .1805013 .47536723 .17041016 .4476776H.16308594V.52586367H.078125V0Z"/>
<path id="font_9_6" d="M.29248048-.009765625C.32340495-.009765625 .35123698-.0057729089 .37597657 .0022125245 .40071617 .01020813 .4222819 .020970663 .44067384 .034500123 .45906578 .048029584 .4740397 .063186649 .4855957 .07997131 .4971517 .09676615 .5052083 .11429342 .5097656 .1325531L.5107422 .13647461H.42578126L.42382813 .13208008C.41927085 .12130737 .41129557 .11086019 .39990235 .100738529 .38850913 .09062704 .37402345 .08230591 .3564453 .07577515 .3388672 .069254558 .31819663 .06599426 .2944336 .06599426 .26253257 .06599426 .23494466 .07307943 .21166992 .087249759 .18839519 .10143026 .17041016 .12171427 .15771485 .1481018 .14501953 .17449951 .13867188 .20644124 .13867188 .243927V.27764894C.13867188 .31707765 .1451823 .35031639 .15820313 .3773651 .17122396 .40441386 .18880208 .42477928 .2109375 .4384613 .23307292 .45214335 .25830079 .45898438 .2866211 .45898438 .3149414 .45898438 .3400065 .45247398 .3618164 .43945313 .3836263 .42643229 .40071617 .40657554 .41308595 .3798828 .42545573 .3531901 .43164063 .3191732 .43164063 .27783204V.24414063L.4736328 .30621339H.095703128V.23828125H.51708987V.27149964C.51708987 .32391868 .50789389 .36990867 .48950196 .4094696 .47111003 .44903056 .44474284 .47979737 .4104004 .50177 .37605796 .52375289 .33496095 .53474429 .28710938 .53474429 .23958333 .53474429 .19816081 .5232544 .1628418 .50027468 .12752278 .47730509 .10017904 .44529215 .08081055 .40423585 .06144206 .36317954 .051757814 .31544496 .051757814 .2610321V.26054383C.051757814 .20546977 .06144206 .15772502 .08081055 .11730957 .10017904 .0769043 .12776692 .04562378 .16357422 .023468018 .19938152 .0013122559 .24235027-.009765625 .29248048-.009765625Z"/>
<path id="font_9_13" d="M.25878907-.009765625C.2985026-.009765625 .33422853-.0030873616 .3659668 .010269165 .39770509 .023635865 .42277018 .042210897 .4411621 .06599426 .45955406 .0897878 .46875 .11732483 .46875 .14860535V.14958191C.46875 .17466736 .4634603 .19633484 .45288087 .21458435 .44230143 .23283386 .42618815 .24831136 .40454103 .26101686 .3828939 .2737325 .35546876 .28399659 .32226563 .29180909L.24121094 .31137086C.22070313 .3165792 .20402019 .32260133 .19116211 .32943727 .17830403 .33628337 .16878255 .3442688 .16259766 .35339356 .15641277 .3625183 .15332031 .37294517 .15332031 .38467408V.38565064C.15332031 .401296 .15804036 .41490174 .16748047 .4264679 .17692058 .43804423 .18969727 .44716899 .20581055 .45384217 .22192383 .4605255 .24039714 .4638672 .26123048 .4638672 .2931315 .4638672 .3190104 .4573466 .3388672 .44430543 .35872398 .4312744 .3712565 .4141744 .37646485 .39300538H.45996095C.4560547 .42167155 .44547526 .44667564 .42822267 .46801759 .41097007 .48935954 .3881022 .5058136 .35961915 .51737979 .33113609 .5289459 .2985026 .534729 .26171876 .534729 .22460938 .534729 .19132488 .5280507 .16186524 .5146942 .1324056 .5013377 .10913086 .48316957 .092041019 .46018983 .07495117 .43721009 .06640625 .4110616 .06640625 .38174439V.3812561C.06640625 .35617066 .07145182 .33441673 .08154297 .31599427 .09163412 .297582 .10725912 .2821045 .12841797 .26956178 .14957683 .25701905 .17659505 .24683635 .20947266 .23901367L.29101563 .21946717C.3232422 .21164449 .34643556 .20146179 .3605957 .18891907 .37475587 .17637635 .38183595 .16114299 .38183595 .143219V.14224243C.38183595 .12627156 .37670899 .11225891 .36645509 .10020447 .35620118 .088150028 .34204103 .07861837 .3239746 .0716095 .3059082 .0646108 .2849935 .06111145 .26123048 .06111145 .22770183 .06111145 .20060222 .06778971 .17993164 .08114624 .15926107 .09451294 .14534505 .11227417 .1381836 .13442993H.05126953C.05452474 .10542806 .06518555 .080093387 .08325195 .058425905 .10131836 .036758424 .12532552 .019973755 .15527344 .008071899 .18522136-.0038197835 .21972656-.009765625 .25878907-.009765625Z"/>
<path id="font_9_14" d="M.26428224-.00390625C.27272544-.00390625 .28100587-.0034179688 .28912355-.0024414063 .2972412-.0014648438 .30519615-.00032552085 .31298829 .0009765625V.07330322C.30553184 .07232666 .2991282 .07183838 .29377748 .07183838 .2884369 .07183838 .28203837 .07183838 .2745819 .07183838 .24767559 .07183838 .22838848 .07851156 .21672058 .09185791 .20505269 .10520426 .19921875 .12716675 .19921875 .15774536V.45599366H.31298829V.5263672H.19921875V.66259768H.111328128V.5263672H.028320313V.45599366H.111328128V.13684082C.111328128 .086995448 .123423259 .051076253 .14761353 .029083252 .17181397 .0070902507 .21070354-.00390625 .26428224-.00390625Z"/>
<path id="font_9_17" d="M.5600586 .32548524 .068359378 .5415039V.45793153L.5551758 .25169374V.3132782L.068359378 .106536868V.026397706L.5600586 .24240113V.32548524Z"/>
<clipPath id="clip_10">
<path transform="matrix(1,0,0,-1,0,784.7617)" d="M484.9735 501.1416H559.67129V532.7412H484.9735Z"/>
</clipPath>
<path id="font_9_8" d="M.080078128 0H.16503906V.52586367H.080078128V0M.122558597 .6269531C.13883464 .6269531 .15266927 .63265487 .1640625 .6440582 .17545574 .6554718 .18115235 .66915896 .18115235 .6851196 .18115235 .7014058 .17545574 .7152507 .1640625 .72665408 .15266927 .73805746 .13883464 .74375918 .122558597 .74375918 .10660807 .74375918 .092936199 .73805746 .08154297 .72665408 .07014974 .7152507 .064453128 .7014058 .064453128 .6851196 .064453128 .66915896 .07014974 .6554718 .08154297 .6440582 .092936199 .63265487 .10660807 .6269531 .122558597 .6269531Z"/>
<path id="font_9_9" d="M.078125 0H.16308594V.3259735C.16308594 .35074363 .16838582 .37330628 .1789856 .3936615 .18958538 .4140269 .20402019 .43015544 .22229004 .44204713 .24055989 .4539388 .2611135 .45988465 .2839508 .45988465 .30612693 .45988465 .32544963 .4556478 .34191896 .44717408 .35839845 .43871055 .37112428 .42673747 .38009645 .41125489 .3890686 .39578248 .3935547 .37761943 .3935547 .35676576V0H.47851563V.3381958C.47851563 .3606771 .48355104 .38112388 .49362184 .39953614 .5036926 .4179484 .5177409 .43260703 .5357666 .44351197 .5537923 .4544271 .57498678 .45988465 .59935 .45988465 .6240387 .45988465 .64450076 .4555664 .6607361 .44692994 .6769816 .43830363 .68908187 .4254354 .69703677 .4083252 .70500186 .3912252 .7089844 .36980693 .7089844 .34407044V0H.7939453V.36361695C.7939453 .4001058 .78744509 .43113709 .7744446 .45671083 .7614441 .4822947 .74250796 .50176498 .7176361 .51512148 .6927745 .52847799 .6624654 .53515627 .626709 .53515627 .60266116 .53515627 .5801544 .5313263 .55918887 .5236664 .53822329 .51601669 .5197754 .5052643 .5038452 .4914093 .4879252 .47756449 .47525025 .46135459 .4658203 .44277955H.45848084C.45033265 .46102906 .43941245 .4770762 .4257202 .49092103 .41202799 .504776 .39572654 .51560977 .3768158 .52342227 .35790507 .53124496 .33654786 .53515627 .31274415 .53515627 .2781779 .53515627 .24874878 .52733358 .22445679 .51168826 .20017497 .49604289 .1821645 .47421266 .17042542 .4461975H.16308594V.52586367H.078125V0Z"/>
<clipPath id="clip_11">
<path transform="matrix(1,0,0,-1,0,784.7617)" d="M35.7002 501.1416H116.94464V532.7412H35.7002Z"/>
</clipPath>
<path id="font_9_10" d="M.078125 0H.16308594V.31132508C.16308594 .3422699 .16870117 .3687388 .17993164 .3907318 .19116211 .41272483 .20694988 .42974855 .22729492 .44180299 .24763997 .45385743 .2718099 .45988465 .2998047 .45988465 .34179688 .45988465 .37280274 .44848124 .39282228 .42567445 .4128418 .40286765 .42285157 .36768089 .42285157 .32011415V0H.5078125V.3406372C.5078125 .4028727 .49194337 .45085145 .46020509 .48457337 .4284668 .5182953 .38297526 .53515627 .32373048 .53515627 .285319 .53515627 .25349937 .527415 .22827149 .5119324 .20304363 .4964498 .18375652 .47486369 .17041016 .44717408H.16308594V.52586367H.078125V0Z"/>
<clipPath id="clip_12">
<path transform="matrix(1,0,0,-1,0,784.7617)" d="M46.40836 628.2617H204.40836V687.2617H46.40836Z"/>
</clipPath>
<clipPath id="clip_13">
<path transform="matrix(1,0,0,-1,0,784.7617)" d="M83.71708 641.9619H167.09961V673.5615H83.71708Z"/>
</clipPath>
<path id="font_9_1" d="M.1328125 0H.36328126C.41341148 0 .45621745 .007904053 .49169923 .023712159 .52718099 .039520265 .55444338 .06216939 .5734863 .091659549 .5925293 .121159877 .6020508 .15644329 .6020508 .19750977V.19848633C.6020508 .22945149 .59562179 .25707499 .5827637 .2813568 .5699056 .30563865 .5517578 .32543946 .5283203 .34075929 .5048828 .3560791 .47705079 .36569215 .44482423 .3695984V.37742616C.4676107 .38164775 .4881185 .39108277 .50634768 .4057312 .52457687 .4203898 .53914389 .4384562 .5500488 .45993043 .5609538 .4814148 .56640627 .5043691 .56640627 .52879336V.5297699C.56640627 .5655772 .5580241 .59658309 .54125979 .6227875 .5244954 .6490021 .50056967 .6692708 .46948243 .68359377 .43839518 .6979167 .4013672 .7050781 .35839845 .7050781H.1328125V.6273804H.33984376C.38313804 .6273804 .4169108 .6175334 .4411621 .59783938 .46541343 .5781555 .47753907 .5505778 .47753907 .5151062V.51412966C.47753907 .47669474 .46411134 .44854228 .43725587 .42967225 .4104004 .41080223 .37027995 .4013672 .31689454 .4013672H.1328125V.3256073H.34179688C.37923179 .3256073 .41056315 .32104493 .43579103 .31192018 .4610189 .3027954 .47998048 .28910319 .49267579 .2708435 .5053711 .252594 .51171877 .22993978 .51171877 .20288086V.2019043C.51171877 .16147869 .49804688 .13067119 .47070313 .10948181 .44335938 .08830261 .40315757 .07771301 .35009767 .07771301H.1328125V0M.08886719 0H.17675781V.7050781H.08886719V0Z"/>
<path id="font_9_7" d="M.29492188-.18554688C.3424479-.18554688 .38378907-.17756145 .4189453-.16159058 .45410157-.14562989 .48120118-.12315369 .50024417-.09416199 .5192871-.06517029 .5288086-.031133017 .5288086 .007949829V.52593997H.44384767V.43896485H.43798829C.4272461 .45884196 .41381837 .47594706 .39770509 .49028016 .3815918 .5046132 .3631185 .51568606 .34228517 .52349856 .3214518 .5313212 .29866538 .53523257 .27392579 .53523257 .22835286 .53523257 .18896485 .52424117 .15576172 .5022583 .122558597 .48028565 .09692383 .4501699 .07885742 .411911 .060791017 .37365214 .051757814 .3299408 .051757814 .28077699V.27980042C.051757814 .2303009 .060709638 .186498 .07861328 .14839173 .09651693 .110295619 .12198893 .08042399 .1550293 .058776857 .18806966 .03712972 .22705078 .026306153 .27197267 .026306153 .2960612 .026306153 .31852214 .029805502 .33935548 .0368042 .3601888 .04381307 .37890626 .054153444 .3955078 .06782532 .41210938 .08150736 .425944 .097961429 .43701173 .1171875H.44482423V.01260376C.44482423-.026245118 .43155924-.056437177 .4050293-.07797241 .37849937-.09951782 .34163413-.11029053 .2944336-.11029053 .2569987-.11029053 .22688802-.10384115 .20410156-.09094238 .18131511-.07804362 .16748047-.061645509 .16259766-.041748048H.16210938 .07421875L.07373047-.042251588C.07828776-.07083639 .08992513-.09593201 .10864258-.11753845 .12736003-.13915508 .15250652-.15589397 .18408203-.16775513 .21565755-.17961629 .25260417-.18554688 .29492188-.18554688M.29052735 .1015625C.25830079 .1015625 .23087566 .10913086 .20825196 .12426758 .18562825 .1394043 .16837566 .16031902 .15649414 .18701172 .14461263 .2137146 .13867188 .24463909 .13867188 .27978517V.28076173C.13867188 .31559245 .14461263 .34651695 .15649414 .37353517 .16837566 .40056358 .18562825 .4217224 .20825196 .43701173 .23087566 .4523112 .25830079 .45996095 .29052735 .45996095 .32307945 .45996095 .35091148 .4523112 .37402345 .43701173 .3971354 .4217224 .41495768 .40056358 .42749024 .37353517 .4400228 .34651695 .44628907 .31559245 .44628907 .28076173V.27978517C.44628907 .24463909 .4400228 .2137146 .42749024 .18701172 .41495768 .16031902 .3971354 .1394043 .37402345 .12426758 .35091148 .10913086 .32307945 .1015625 .29052735 .1015625Z"/>
<clipPath id="clip_14">
<path transform="matrix(1,0,0,-1,0,784.7617)" d="M224.0392 631.2617H376.03919V684.2617H224.0392Z"/>
</clipPath>
<clipPath id="clip_15">
<path transform="matrix(1,0,0,-1,0,784.7617)" d="M243.6131 641.9619H356.4653V673.5615H243.6131Z"/>
</clipPath>
<path id="font_9_3" d="M.08886719 0H.17675781V.7050781H.08886719V0Z"/>
<path id="font_9_5" d="M.2722473-.008865356C.2966919-.008865356 .31934104-.0051167809 .3401947 .002380371 .36105857 .0098775229 .37963868 .020543417 .39593507 .03437805 .41223146 .04822286 .42575584 .06492106 .43650819 .084472659H.44433595V0H.5292969V.7345581H.44433595V.4427948H.43652345C.427063 .46169535 .41402183 .47798667 .3973999 .4916687 .38077799 .50535079 .36179099 .51601669 .34043885 .5236664 .3190969 .5313263 .29636637 .53515627 .2722473 .53515627 .22792562 .53515627 .18921916 .52400717 .15612793 .501709 .123046878 .4794108 .09738159 .4479116 .07913208 .4072113 .06088257 .3665212 .051757814 .31866456 .051757814 .26364137V.2626648C.051757814 .20796712 .06088257 .16026815 .07913208 .11956787 .09738159 .07887777 .12312826 .04729716 .15637207 .02482605 .18961589 .0023651124 .22824097-.008865356 .2722473-.008865356M.29174806 .06640625C.25979615 .06640625 .23240662 .07430013 .20957947 .09008789 .1867625 .10587565 .16924031 .12841289 .15701294 .15769959 .14478557 .18698628 .13867188 .22197469 .13867188 .2626648V.26364137C.13867188 .30464683 .14478557 .33971153 .15701294 .36883546 .16924031 .39796958 .1867625 .42042542 .20957947 .436203 .23240662 .45199076 .25979615 .45988465 .29174806 .45988465 .32369996 .45988465 .35116578 .4519094 .3741455 .43595887 .3971354 .42001853 .41482545 .3974813 .42721559 .36834718 .4396057 .33922325 .44580079 .3043213 .44580079 .26364137V.2626648C.44580079 .22262573 .4396057 .18788147 .42721559 .158432 .41482545 .12898255 .3971354 .106282558 .3741455 .09033203 .35116578 .07438151 .32369996 .06640625 .29174806 .06640625Z"/>
<path id="font_9_4" d="M.22216797-.009353638C.24593099-.009353638 .26774089-.006011963 .28759767 .0006713867 .30745445 .0073547365 .3252767 .017211914 .34106446 .03024292 .3568522 .043273927 .37027995 .059076948 .38134767 .07765198H.38916017V0H.4741211V.36019898C.4741211 .39668785 .4663086 .42796327 .4506836 .45402528 .4350586 .48008729 .4124349 .5001221 .3828125 .51412966 .3531901 .5281474 .31689454 .53515627 .27392579 .53515627 .23649089 .53515627 .203125 .52937319 .17382813 .517807 .14453125 .50624087 .12068685 .49002586 .10229492 .469162 .08390299 .44830833 .07259115 .42403666 .068359378 .39634706L.067871097 .3934021H.15234375L.15283203 .39486695C.15966797 .4153951 .17317708 .43136088 .19335938 .44276429 .21354167 .45417787 .23942058 .45988465 .2709961 .45988465 .31038413 .45988465 .33992515 .45132957 .35961915 .43421937 .37931315 .41710917 .38916017 .39226786 .38916017 .35969544V.19642639C.38916017 .17133077 .3827311 .1488444 .36987306 .12896729 .35701499 .10909017 .33935548 .09336853 .31689454 .08180237 .2944336 .070236209 .26871745 .064453128 .2397461 .064453128 .20914714 .064453128 .18383789 .07186381 .16381836 .08668518 .14379883 .10151672 .13378906 .12212626 .13378906 .1485138V.14949036C.13378906 .17556255 .14298503 .19576518 .16137696 .21009827 .17976888 .22444153 .20882161 .23275249 .24853516 .23503113L.43164063 .24676514V.31471253L.23828125 .30297853C.19759114 .30069987 .16300456 .2932078 .13452149 .28050233 .106038417 .26779685 .0843099 .25027976 .06933594 .22795105 .05436198 .20563253 .046875 .17899578 .046875 .14804077V.14706421C.046875 .11513265 .05452474 .08743286 .06982422 .063964847 .085123699 .040507 .106038417 .022420248 .13256836 .00970459 .15909831-.0030008953 .18896485-.009353638 .22216797-.009353638Z"/>
<clipPath id="clip_16">
<path transform="matrix(1,0,0,-1,0,784.7617)" d="M398.6701 631.2617H550.6701V684.2617H398.6701Z"/>
</clipPath>
<clipPath id="clip_17">
<path transform="matrix(1,0,0,-1,0,784.7617)" d="M442.8267 641.9619H506.51338V673.5615H442.8267Z"/>
</clipPath>
<path id="font_9_2" d="M.08886719 0H.5253906V.07917786H.17675781V.32128907H.5073242V.39949037H.17675781V.62590029H.5253906V.7050781H.08886719V0Z"/>
<path id="font_9_15" d="M.036132814 0H.13134766L.25634767 .1984253H.26367188L.3881836 0H.4873047L.30664063 .26635743 .48535157 .52586367H.39013673L.26660157 .33036805H.25927735L.13427735 .52586367H.034179689L.21582031 .2629242 .036132814 0Z"/>
<path id="font_9_11" d="M.078125-.17578125H.16308594V.083496097H.17041016C.18017578 .06459554 .193278 .04830424 .2097168 .034622194 .2261556 .020950318 .24503581 .010284424 .26635743 .0026245118 .28767906-.0050354006 .31038413-.008865356 .33447267-.008865356 .379069-.008865356 .41788737 .0023651124 .45092774 .02482605 .4839681 .04729716 .5095215 .078801479 .5275879 .11933899 .5456543 .15988668 .5546875 .2076772 .5546875 .26271058V.26368714C.5546875 .3183848 .5456543 .36608378 .5275879 .40678407 .5095215 .44748435 .4839681 .47906495 .45092774 .5015259 .41788737 .523997 .379069 .53523257 .33447267 .53523257 .3100586 .53523257 .2874349 .53148397 .26660157 .5239868 .24576824 .5164998 .22721355 .5058339 .2109375 .49198915 .19466146 .47814433 .18115235 .46144615 .17041016 .44189454H.16308594V.5260315H.078125V-.17578125M.3149414 .06640625C.28336589 .06640625 .25602214 .07438151 .23291016 .09033203 .20979817 .106282558 .1920573 .12890625 .1796875 .15820313 .1673177 .1875 .16113281 .22233582 .16113281 .26271058V.26368714C.16113281 .30436708 .1673177 .33927409 .1796875 .3684082 .1920573 .3975525 .20979817 .42009483 .23291016 .43603517 .25602214 .4519857 .28336589 .45996095 .3149414 .45996095 .34716798 .45996095 .37467448 .45206706 .39746095 .4362793 .4202474 .4205017 .43766276 .39804078 .44970704 .36889649 .4617513 .33976237 .46777345 .3046926 .46777345 .26368714V.26271058C.46777345 .2220103 .4617513 .18701172 .44970704 .15771485 .43766276 .12841797 .4202474 .10587565 .39746095 .09008789 .37467448 .07430013 .34716798 .06640625 .3149414 .06640625Z"/>
</defs>
<g clip-path="url(#clip_0)">
<path transform="matrix(1,0,0,-1,0,784.7617)" d="M39.90836 37H560.1701V557.2617H39.90836Z" fill="#5ac4f6"/>
</g>
<g clip-path="url(#clip_1)">
<use data-text="&#x003c;" xlink:href="#font_2_15" transform="matrix(36,0,0,-36,195.6164,501.5371)"/>
<use data-text="b" xlink:href="#font_2_3" transform="matrix(36,0,0,-36,217.74559,501.5371)"/>
<use data-text="o" xlink:href="#font_2_9" transform="matrix(36,0,0,-36,238.03879,501.5371)"/>
<use data-text="a" xlink:href="#font_2_2" transform="matrix(36,0,0,-36,257.504,501.5371)"/>
<use data-text="r" xlink:href="#font_2_11" transform="matrix(36,0,0,-36,275.9252,501.5371)"/>
<use data-text="d" xlink:href="#font_2_4" transform="matrix(36,0,0,-36,286.49839,501.5371)"/>
<use data-text="-" xlink:href="#font_2_14" transform="matrix(36,0,0,-36,306.7916,501.5371)"/>
<use data-text="g" xlink:href="#font_2_6" transform="matrix(36,0,0,-36,322.58479,501.5371)"/>
<use data-text="r" xlink:href="#font_2_11" transform="matrix(36,0,0,-36,342.698,501.5371)"/>
<use data-text="i" xlink:href="#font_2_7" transform="matrix(36,0,0,-36,354.1712,501.5371)"/>
<use data-text="d" xlink:href="#font_2_4" transform="matrix(36,0,0,-36,361.97239,501.5371)"/>
<use data-text="&#x003e;" xlink:href="#font_2_16" transform="matrix(36,0,0,-36,382.26557,501.5371)"/>
</g>
<g clip-path="url(#clip_3)">
<use data-text="M" xlink:href="#font_2_1" transform="matrix(36,0,0,-36,196.2931,76.40619)"/>
<use data-text="i" xlink:href="#font_2_7" transform="matrix(36,0,0,-36,226.57991,76.40619)"/>
<use data-text="n" xlink:href="#font_2_8" transform="matrix(36,0,0,-36,234.3667,76.40619)"/>
<use data-text="e" xlink:href="#font_2_5" transform="matrix(36,0,0,-36,253.7095,76.40619)"/>
<use data-text="s" xlink:href="#font_2_12" transform="matrix(36,0,0,-36,272.5123,76.40619)"/>
<use data-text="w" xlink:href="#font_2_13" transform="matrix(36,0,0,-36,289.6231,76.40619)"/>
<use data-text="e" xlink:href="#font_2_5" transform="matrix(36,0,0,-36,315.73393,76.40619)"/>
<use data-text="e" xlink:href="#font_2_5" transform="matrix(36,0,0,-36,334.5367,76.40619)"/>
<use data-text="p" xlink:href="#font_2_10" transform="matrix(36,0,0,-36,353.3395,76.40619)"/>
<use data-text="e" xlink:href="#font_2_5" transform="matrix(36,0,0,-36,373.4743,76.40619)"/>
<use data-text="r" xlink:href="#font_2_11" transform="matrix(36,0,0,-36,392.2771,76.40619)"/>
</g>
<g clip-path="url(#clip_4)">
<path transform="matrix(1,0,0,-1,0,784.7617)" d="M39.40836 477.6211H560.6701V556.2617H39.40836Z" fill="#295ff4"/>
</g>
<g clip-path="url(#clip_5)">
<path transform="matrix(1,0,0,-1,0,784.7617)" d="M60.9457 549.0156H91.69913C96.01554 549.0156 98.60539 549.0156 100.332 548.2948 102.8209 547.3889 104.7816 545.4282 105.6875 542.9392 106.4084 541.2127 106.4084 538.6228 106.4084 534.3064V499.5764C106.4084 495.26 106.4084 492.6702 105.6875 490.9436 104.7816 488.4546 102.8209 486.4939 100.332 485.588 98.60539 484.8672 96.01554 484.8672 91.69913 484.8672H60.9457C56.62929 484.8672 54.03945 484.8672 52.31288 485.588 49.82389 486.4939 47.86322 488.4546 46.9573 490.9436 46.23648 492.6702 46.23648 495.26 46.23648 499.5764V534.3064C46.23648 538.6228 46.23648 541.2127 46.9573 542.9392 47.86322 545.4282 49.82389 547.3889 52.31288 548.2948 54.03945 549.0156 56.62929 549.0156 60.9457 549.0156ZM60.9457 549.0156" fill="#6ce4cf"/>
</g>
<g clip-path="url(#clip_6)">
<path transform="matrix(1,0,0,-1,0,784.7617)" d="M506.9457 549.0156H537.6991C542.0155 549.0156 544.6054 549.0156 546.332 548.2948 548.8209 547.3889 550.7816 545.4282 551.6875 542.9392 552.4084 541.2127 552.4084 538.6228 552.4084 534.3064V499.5764C552.4084 495.26 552.4084 492.6702 551.6875 490.9436 550.7816 488.4546 548.8209 486.4939 546.332 485.588 544.6054 484.8672 542.0155 484.8672 537.6991 484.8672H506.9457C502.6293 484.8672 500.0394 484.8672 498.3129 485.588 495.8239 486.4939 493.8632 488.4546 492.9573 490.9436 492.2365 492.6702 492.2365 495.26 492.2365 499.5764V534.3064C492.2365 538.6228 492.2365 541.2127 492.9573 542.9392 493.8632 545.4282 495.8239 547.3889 498.3129 548.2948 500.0394 549.0156 502.6293 549.0156 506.9457 549.0156ZM506.9457 549.0156" fill="#6ce4cf"/>
</g>
<g clip-path="url(#clip_7)">
<path transform="matrix(1,0,0,-1,0,784.7617)" d="M284.6625 549.0156H315.4159C319.7323 549.0156 322.3222 549.0156 324.0488 548.2948 326.5377 547.3889 328.4984 545.4282 329.4043 542.9392 330.1252 541.2127 330.1252 538.6228 330.1252 534.3064V499.5764C330.1252 495.26 330.1252 492.6702 329.4043 490.9436 328.4984 488.4546 326.5377 486.4939 324.0488 485.588 322.3222 484.8672 319.7323 484.8672 315.4159 484.8672H284.6625C280.3461 484.8672 277.7562 484.8672 276.0297 485.588 273.5407 486.4939 271.58 488.4546 270.6741 490.9436 269.9533 492.6702 269.9533 495.26 269.9533 499.5764V534.3064C269.9533 538.6228 269.9533 541.2127 270.6741 542.9392 271.58 545.4282 273.5407 547.3889 276.0297 548.2948 277.7562 549.0156 280.3461 549.0156 284.6625 549.0156ZM284.6625 549.0156" fill="#f6ce46"/>
</g>
<g clip-path="url(#clip_8)">
<use data-text="&#x003c;" xlink:href="#font_9_16" transform="matrix(18,0,0,-18,268.8319,274.5234)"/>
<use data-text="r" xlink:href="#font_9_12" transform="matrix(18,0,0,-18,279.70933,274.5234)"/>
<use data-text="e" xlink:href="#font_9_6" transform="matrix(18,0,0,-18,285.7987,274.5234)"/>
<use data-text="s" xlink:href="#font_9_13" transform="matrix(18,0,0,-18,295.5961,274.5234)"/>
<use data-text="e" xlink:href="#font_9_6" transform="matrix(18,0,0,-18,304.5295,274.5234)"/>
<use data-text="t" xlink:href="#font_9_14" transform="matrix(18,0,0,-18,314.3269,274.5234)"/>
<use data-text="&#x003e;" xlink:href="#font_9_17" transform="matrix(18,0,0,-18,320.3803,274.5234)"/>
</g>
<g clip-path="url(#clip_10)">
<use data-text="&#x003c;" xlink:href="#font_9_16" transform="matrix(18,0,0,-18,490.7733,274.5234)"/>
<use data-text="t" xlink:href="#font_9_14" transform="matrix(18,0,0,-18,501.6507,274.5234)"/>
<use data-text="i" xlink:href="#font_9_8" transform="matrix(18,0,0,-18,507.70408,274.5234)"/>
<use data-text="m" xlink:href="#font_9_9" transform="matrix(18,0,0,-18,511.6875,274.5234)"/>
<use data-text="e" xlink:href="#font_9_6" transform="matrix(18,0,0,-18,526.8489,274.5234)"/>
<use data-text="r" xlink:href="#font_9_12" transform="matrix(18,0,0,-18,536.6463,274.5234)"/>
<use data-text="&#x003e;" xlink:href="#font_9_17" transform="matrix(18,0,0,-18,543.0057,274.5234)"/>
</g>
<g clip-path="url(#clip_11)">
<use data-text="&#x003c;" xlink:href="#font_9_16" transform="matrix(18,0,0,-18,41.5,274.5234)"/>
<use data-text="m" xlink:href="#font_9_9" transform="matrix(18,0,0,-18,52.3774,274.5234)"/>
<use data-text="i" xlink:href="#font_9_8" transform="matrix(18,0,0,-18,67.5388,274.5234)"/>
<use data-text="n" xlink:href="#font_9_10" transform="matrix(18,0,0,-18,71.5222,274.5234)"/>
<use data-text="e" xlink:href="#font_9_6" transform="matrix(18,0,0,-18,81.5356,274.5234)"/>
<use data-text="s" xlink:href="#font_9_13" transform="matrix(18,0,0,-18,91.33301,274.5234)"/>
<use data-text="&#x003e;" xlink:href="#font_9_17" transform="matrix(18,0,0,-18,100.2664,274.5234)"/>
</g>
<g clip-path="url(#clip_12)">
<path transform="matrix(1,0,0,1,50.40836,101.5)" stroke-width="6" stroke-linecap="butt" stroke-miterlimit="4" stroke-linejoin="miter" fill="none" stroke="#782cf6" d="M34.39496 0H115.605C125.4754 0 131.3976 0 135.3458 1.439789 141.4871 3.675068 146.3249 8.512868 148.5602 14.65425 149.5946 17.04566 150 22.16961 150 25.5 150 28.83039 149.5946 33.95434 148.5602 36.34575 146.3249 42.48713 141.4871 47.32493 135.3458 49.56021 131.3976 51 125.4754 51 115.605 51H34.39496C24.5246 51 18.60239 51 14.65425 49.56021 8.512868 47.32493 3.675068 42.48713 1.439789 36.34575 .4053801 33.95434 0 28.83039 0 25.5 0 22.16961 .4053801 17.04566 1.439789 14.65425 3.675068 8.512868 8.512868 3.675068 14.65425 1.439789 18.60239 0 24.5246 0 34.39496 0ZM34.39496 0"/>
</g>
<g clip-path="url(#clip_13)">
<use data-text="B" xlink:href="#font_9_1" transform="matrix(18,0,0,-18,89.51689,133.70313)"/>
<use data-text="e" xlink:href="#font_9_6" transform="matrix(18,0,0,-18,100.86409,133.70313)"/>
<use data-text="g" xlink:href="#font_9_7" transform="matrix(18,0,0,-18,110.66329,133.70313)"/>
<use data-text="i" xlink:href="#font_9_8" transform="matrix(18,0,0,-18,121.14649,133.70313)"/>
<use data-text="n" xlink:href="#font_9_10" transform="matrix(18,0,0,-18,125.11369,133.70313)"/>
<use data-text="n" xlink:href="#font_9_10" transform="matrix(18,0,0,-18,135.12889,133.70313)"/>
<use data-text="e" xlink:href="#font_9_6" transform="matrix(18,0,0,-18,145.1441,133.70313)"/>
<use data-text="r" xlink:href="#font_9_12" transform="matrix(18,0,0,-18,154.9433,133.70313)"/>
</g>
<g clip-path="url(#clip_14)">
<path transform="matrix(1,0,0,-1,0,784.7617)" d="M259.4342 683.2617H340.6443C350.5146 683.2617 356.4368 683.2617 360.385 681.8219 366.5263 679.5867 371.3641 674.7489 373.5994 668.6075 374.6338 666.2161 375.0392 661.0921 375.0392 657.7617 375.0392 654.4313 374.6338 649.3074 373.5994 646.916 371.3641 640.7746 366.5263 635.9368 360.385 633.7015 356.4368 632.2617 350.5146 632.2617 340.6443 632.2617H259.4342C249.5638 632.2617 243.6416 632.2617 239.6935 633.7015 233.5521 635.9368 228.7143 640.7746 226.479 646.916 225.4446 649.3074 225.0392 654.4313 225.0392 657.7617 225.0392 661.0921 225.4446 666.2161 226.479 668.6075 228.7143 674.7489 233.5521 679.5867 239.6935 681.8219 243.6416 683.2617 249.5638 683.2617 259.4342 683.2617ZM259.4342 683.2617" fill="#782cf6"/>
</g>
<g clip-path="url(#clip_15)">
<use data-text="I" xlink:href="#font_9_3" transform="matrix(18,0,0,-18,249.4129,133.70313)" fill="#ffffff"/>
<use data-text="n" xlink:href="#font_9_10" transform="matrix(18,0,0,-18,253.7545,133.70313)" fill="#ffffff"/>
<use data-text="t" xlink:href="#font_9_14" transform="matrix(18,0,0,-18,263.7661,133.70313)" fill="#ffffff"/>
<use data-text="e" xlink:href="#font_9_6" transform="matrix(18,0,0,-18,269.6737,133.70313)" fill="#ffffff"/>
<use data-text="r" xlink:href="#font_9_12" transform="matrix(18,0,0,-18,279.4693,133.70313)" fill="#ffffff"/>
<use data-text="m" xlink:href="#font_9_9" transform="matrix(18,0,0,-18,285.9889,133.70313)" fill="#ffffff"/>
<use data-text="e" xlink:href="#font_9_6" transform="matrix(18,0,0,-18,301.1665,133.70313)" fill="#ffffff"/>
<use data-text="d" xlink:href="#font_9_5" transform="matrix(18,0,0,-18,310.9621,133.70313)" fill="#ffffff"/>
<use data-text="i" xlink:href="#font_9_8" transform="matrix(18,0,0,-18,321.5317,133.70313)" fill="#ffffff"/>
<use data-text="a" xlink:href="#font_9_4" transform="matrix(18,0,0,-18,325.5133,133.70313)" fill="#ffffff"/>
<use data-text="t" xlink:href="#font_9_14" transform="matrix(18,0,0,-18,334.96693,133.70313)" fill="#ffffff"/>
<use data-text="e" xlink:href="#font_9_6" transform="matrix(18,0,0,-18,340.8745,133.70313)" fill="#ffffff"/>
</g>
<g clip-path="url(#clip_16)">
<path transform="matrix(1,0,0,-1,0,784.7617)" d="M434.065 683.2617H515.2751C525.1455 683.2617 531.0677 683.2617 535.0158 681.8219 541.1572 679.5867 545.995 674.7489 548.2303 668.6075 549.2647 666.2161 549.6701 661.0921 549.6701 657.7617 549.6701 654.4313 549.2647 649.3074 548.2303 646.916 545.995 640.7746 541.1572 635.9368 535.0158 633.7015 531.0677 632.2617 525.1455 632.2617 515.2751 632.2617H434.065C424.1947 632.2617 418.2725 632.2617 414.3243 633.7015 408.1829 635.9368 403.3451 640.7746 401.1099 646.916 400.0755 649.3074 399.6701 654.4313 399.6701 657.7617 399.6701 661.0921 400.0755 666.2161 401.1099 668.6075 403.3451 674.7489 408.1829 679.5867 414.3243 681.8219 418.2725 683.2617 424.1947 683.2617 434.065 683.2617ZM434.065 683.2617" fill="#782cf6"/>
</g>
<g clip-path="url(#clip_17)">
<use data-text="E" xlink:href="#font_9_2" transform="matrix(18,0,0,-18,448.6265,133.70313)" fill="#ffffff"/>
<use data-text="x" xlink:href="#font_9_15" transform="matrix(18,0,0,-18,458.8739,133.70313)" fill="#ffffff"/>
<use data-text="p" xlink:href="#font_9_11" transform="matrix(18,0,0,-18,467.8253,133.70313)" fill="#ffffff"/>
<use data-text="e" xlink:href="#font_9_6" transform="matrix(18,0,0,-18,478.3247,133.70313)" fill="#ffffff"/>
<use data-text="r" xlink:href="#font_9_12" transform="matrix(18,0,0,-18,488.1221,133.70313)" fill="#ffffff"/>
<use data-text="t" xlink:href="#font_9_14" transform="matrix(18,0,0,-18,494.6615,133.70313)" fill="#ffffff"/>
</g>
</svg>
